<svg width="90" height="24" viewBox="0 0 90 24" fill="none" xmlns="http://www.w3.org/2000/svg">
<g clip-path="url(#clip0_47_3)">
<path d="M59.2478 0V17.4266C61.3974 17.5266 63.5412 17.6475 65.6791 17.7901V21.4849C62.2883 21.2588 58.8942 21.0872 55.4979 20.9703V0H59.2478ZM89.0466 0.00208696L84.1636 11.3228L89.0454 23.9207L89.04 23.923C87.6166 23.7205 86.1919 23.5278 84.7659 23.345L82.0245 16.2744L79.257 22.6887C77.9441 22.5436 76.6304 22.4068 75.3158 22.2783L80.076 11.247L75.7165 0.00226087H79.773L82.2139 6.29513L84.928 0.00208696H89.0466ZM42.628 20.7871V0.00191304H53.0958V3.72991H46.3779V8.56122H51.4608V12.256H46.3779V20.7864L42.628 20.7871ZM28.6257 3.73009V0.00173913H40.224V3.72991H36.2996V20.8882C35.048 20.9212 33.7977 20.9598 32.5501 21.007V3.73009H28.6257ZM15.8062 22.081V0.00243478H26.2219V3.73026H19.5556V8.78C21.0871 8.76035 23.2647 8.73826 24.6195 8.74139V12.4365C22.9236 12.4157 21.0094 12.4598 19.5556 12.4743V18.068C21.7761 17.893 23.9983 17.7411 26.2219 17.6123V21.3075C22.746 21.508 19.2736 21.766 15.8062 22.0814V22.081ZM8.45023 13.5398L8.45006 0.00173913H12.2V22.4296C10.8292 22.5704 9.46084 22.7205 8.0951 22.879L3.75267 10.4042V23.4132C2.50176 23.576 1.25182 23.7462 0.00292969 23.9238V0.00208696H3.56658L8.45023 13.5398ZM68.7727 21.7077V0.00208696H72.5228V22.0174C71.2742 21.9061 70.0247 21.8033 68.7727 21.7077Z" fill="#DB202C"/>
</g>
<defs>
<clipPath id="clip0_47_3">
<rect width="89.05" height="24" fill="white"/>
</clipPath>
</defs>
</svg>
